<?xml version="1.0" encoding="UTF-8" standalone="no"?>
<!-- Created with Inkscape (http://www.inkscape.org/) -->
<svg id="svg2" xmlns:rdf="http://www.w3.org/1999/02/22-rdf-syntax-ns#" xmlns="http://www.w3.org/2000/svg" viewBox="0 0 149.66 224.38" version="1.1" xmlns:cc="http://creativecommons.org/ns#" xmlns:dc="http://purl.org/dc/elements/1.1/">
	<metadata id="metadata7">
		<rdf:RDF>
			<cc:Work rdf:about="">
				<dc:format>image/svg+xml</dc:format>
				<dc:type rdf:resource="http://purl.org/dc/dcmitype/StillImage"/>
				<dc:title/>
			</cc:Work>
		</rdf:RDF>
	</metadata>
	<g id="layer1" transform="translate(-0.303571,-827.86161)">
		<g id="g3767">
			<g id="g3779" transform="translate(-88.571429,32.142857)">
				<path id="path2995" d="m221.03,795.72c-0.93848,0-1.2444,0.0589-2.8125,0.15625-10.75-0.3288-24.586,3.3388-34.688,9.875-14.18,9.1749-19.125,21.366-23.531,38.594-1.9851,7.7613-3.2544,23.438-3.9688,37l-1.53,53.15c-0.16159,12.793-0.72055,29.43-1.5312,36.469-1.6587,14.4-5.1751,22.198-15.094,34.125-4.6932,5.6434-13.08,8.9274-18.844,9.5312,2.9846-3.1387,4.8438-7.358,4.8438-12.031,0-9.665-7.835-17.5-17.5-17.5s-17.5,7.835-17.5,17.5c0,9.6649,7.835,17.5,17.5,17.5,0.93848,0,1.2444-0.028,2.8125-0.125,10.75,0.3288,24.586-3.3389,34.688-9.875,14.18-9.1749,19.125-21.366,23.531-38.594,1.9839-7.7566,3.2542-23.444,3.9688-37l1.5312-53.156c0.16152-12.793,0.72045-29.461,1.5312-36.5,1.6587-14.4,5.1751-22.167,15.094-34.094,4.6932-5.6434,13.08-8.9587,18.844-9.5625-2.9846,3.1387-4.8438,7.358-4.8438,12.031,0,9.665,7.835,17.5,17.5,17.5s17.5-7.835,17.5-17.5-7.835-17.5-17.5-17.5z" fill="#000"/>
				<path id="path3777" stroke-linejoin="miter" d="m115,847.36s95.679-4.5317,100,30c4.8265,38.572-104.83,21.428-100,60,4.3209,34.532,100,30,100,30" stroke="#000" stroke-linecap="butt" stroke-miterlimit="4" stroke-dasharray="none" stroke-width="12.19999981" fill="none"/>
			</g>
		</g>
	</g>
</svg>
